<svg xmlns="http://www.w3.org/2000/svg" width="800" height="1200" viewBox="0 0 800 1200">
  <defs>
    <pattern id="grid" width="40" height="40" patternUnits="userSpaceOnUse">
      <path d="M 40 0 L 0 0 0 40" fill="none" stroke="#1a1a1a" stroke-width="1"/>
    </pattern>
    <radialGradient id="glow" cx="50%" cy="38%" r="70%">
      <stop offset="0%" stop-color="#2a0a0a"/>
      <stop offset="60%" stop-color="#0a0a0a"/>
      <stop offset="100%" stop-color="#050505"/>
    </radialGradient>
  </defs>
  <rect width="800" height="1200" fill="url(#glow)"/>
  <rect width="800" height="1200" fill="url(#grid)"/>
  <rect x="60" y="60" width="680" height="1080" fill="none" stroke="#2a2a2a" stroke-width="1"/>
  <text x="90" y="130" font-family="monospace" font-size="20" fill="#ff2a2a" letter-spacing="4">TOP SECRET // FILE</text>
  <text x="90" y="165" font-family="monospace" font-size="14" fill="#555" letter-spacing="3">CASE #2026 - NKC.MR</text>
  <text x="400" y="520" text-anchor="middle" font-family="Georgia, 'Playfair Display', serif" font-size="110" font-weight="bold" fill="#e8e8e8">AOUN</text>
  <line x1="150" y1="570" x2="650" y2="570" stroke="#ff2a2a" stroke-width="2"/>
  <text x="400" y="625" text-anchor="middle" font-family="monospace" font-size="22" fill="#888" letter-spacing="5">LOCAL WORKERS MARKETPLACE</text>
  <text x="400" y="680" text-anchor="middle" font-family="monospace" font-size="16" fill="#ff2a2a" letter-spacing="3">[ SPRING BOOT / REACT ]</text>
  <g font-family="monospace" font-size="15" fill="#3a3a3a">
    <text x="90" y="960">&gt;&gt; initializing modules...</text>
    <text x="90" y="990">&gt;&gt; connecting database...</text>
    <text x="90" y="1020">&gt;&gt; access granted_</text>
  </g>
  <rect x="600" y="1060" width="140" height="30" fill="#111"/>
  <g stroke="#666" stroke-width="3">
    <line x1="610" y1="1065" x2="610" y2="1085"/><line x1="618" y1="1065" x2="618" y2="1085"/><line x1="630" y1="1065" x2="630" y2="1085"/><line x1="636" y1="1065" x2="636" y2="1085"/><line x1="648" y1="1065" x2="648" y2="1085"/><line x1="660" y1="1065" x2="660" y2="1085"/><line x1="666" y1="1065" x2="666" y2="1085"/><line x1="680" y1="1065" x2="680" y2="1085"/><line x1="692" y1="1065" x2="692" y2="1085"/><line x1="700" y1="1065" x2="700" y2="1085"/><line x1="712" y1="1065" x2="712" y2="1085"/><line x1="724" y1="1065" x2="724" y2="1085"/>
  </g>
</svg>
